<?xml version="1.0" encoding="utf-8"?>
<!-- Generator: Adobe Illustrator 23.0.2, SVG Export Plug-In . SVG Version: 6.00 Build 0)  -->
<svg version="1.1" id="Layer_1" xmlns="http://www.w3.org/2000/svg" xmlns:xlink="http://www.w3.org/1999/xlink" x="0px" y="0px"
	 viewBox="0 0 360 220" style="enable-background:new 0 0 360 220;" xml:space="preserve">
<style type="text/css">
	.st0{fill:#F0EFEB;}
</style>
<g>
	<title>victron</title>
	<path class="st0" d="M137.7,65.9c-6.4-2-13.5-0.5-18.6,3.9c0,0-11.1,7.5-13.2,38.8c0,0-0.6,5.2,4,6c0,0,4.6,0.9,5.3-3
		c0.6-3.9,0.5-23.7,9.3-34c0.8-1,2-1.8,3.2-2.3c1.9-1.4,3.4-3.1,4.6-5.2C133.8,68.4,135.6,66.9,137.7,65.9"/>
	<path class="st0" d="M154.4,65.2c0,0-8.2-2.6-17,4.1c0,0-10.5,6.4-12.9,31.9c-0.5,3.1-0.6,6.3-0.4,9.4c0.3,2.2,2.1,3.9,4.2,4
		c0,0,4.6,0.4,4.9-4l0.4-6.1c0,0,0.7-17,7.5-25.5l1.7,1.2C144.9,74.1,148.9,68.8,154.4,65.2L154.4,65.2z"/>
	<path class="st0" d="M171,65.2c-6.9-1.3-14,1-18.9,6.1c0,0-7.9,7-10.2,24.5c0,0-1,9.4-1.2,14c-0.1,2.5,1.7,4.6,4.2,5
		c2.4,0.2,4.5-1.7,4.7-4.1c0-0.1,0-0.2,0-0.3c0,0,0.3-21.4,8.2-31.2l1.9,1.2C159.7,80.4,163.2,70.5,171,65.2L171,65.2z"/>
	<path class="st0" d="M183.6,64.9c-7.3,0.2-14,4.2-17.5,10.7c0,0-7.5,10.9-7.5,33.3c0,0-0.5,5.3,3.8,5.8c2.6,0.1,4.8-1.9,5-4.5
		c0-0.3,0-0.6,0-0.8c0,0,0.2-22.1,8.6-31c0,0,7.5,8.9,8.1,30c0,0,0.2,14.5,2.9,22.4c1.7-7,2.7-14.1,2.9-21.3c0-1.5,0.6-2.9,1.8-3.8
		c0,0,1.3-0.6,1-2.9c0,0-1.8-18.4-7.9-28.8c0,0,13-0.8,15.5,25.1c0.1,2.2,0.8,4.4,2.1,6.2c1.1,1,1.7,2.3,1.7,3.8
		c0.2,5.2-0.1,10.4-0.7,15.5c-0.1,2.1,0.2,4.3,0.9,6.3c1.9-5.6,2.7-11.6,2.4-17.6c0,0-0.4-7.1,3.1-9.4c0,0-0.3-19.7-8.1-30.5
		C197.2,67.9,190.5,64.8,183.6,64.9L183.6,64.9z"/>
	<path class="st0" d="M222.3,154.1c6.4,2,13.5,0.5,18.6-3.9c0,0,11.1-7.5,13.2-38.9c0,0,0.6-5.2-4-6c0,0-4.7-0.9-5.3,3
		c-0.6,3.9-0.5,23.7-9.3,34c-0.8,1-1.9,1.8-3.2,2.3c-1.9,1.4-3.5,3.1-4.6,5.2C226.2,151.6,224.4,153.1,222.3,154.1"/>
	<path class="st0" d="M205.6,154.8c0,0,8.2,2.6,17-4.1c0,0,10.5-6.4,12.9-31.9c0.5-3.1,0.6-6.3,0.4-9.4c-0.3-2.2-2-3.9-4.2-4.1
		c0,0-4.6-0.4-4.9,4l-0.4,6.1c0,0-0.7,17-7.5,25.5l-1.7-1.2C215.1,145.9,211.1,151.2,205.6,154.8L205.6,154.8z"/>
	<path class="st0" d="M189,154.8c6.9,1.3,14-1,18.9-6.1c0,0,7.9-7,10.2-24.5c0,0,1-9.4,1.1-14c0.1-2.5-1.7-4.6-4.2-5
		c-2.4-0.2-4.5,1.7-4.7,4.1c0,0.1,0,0.2,0,0.3c0,0-0.3,21.4-8.2,31.2l-1.9-1.2C200.3,139.6,196.8,149.5,189,154.8L189,154.8z"/>
	<path class="st0" d="M176.4,155.1c7.3-0.2,14-4.2,17.5-10.7c0,0,7.5-10.9,7.5-33.3c0,0,0.5-5.3-3.8-5.8c-2.6-0.1-4.8,1.9-5,4.5
		c0,0.3,0,0.6,0,0.8c0,0-0.2,22.1-8.6,31c0,0-7.5-8.9-8.1-30c0,0-0.3-14.5-2.9-22.4c-1.7,7-2.7,14.1-2.9,21.3c0,1.5-0.6,2.9-1.8,3.8
		c0,0-1.3,0.6-1,2.9c0,0,1.9,18.4,7.9,28.8c0,0-13,0.8-15.5-25.1c0-2.2-0.8-4.4-2.1-6.2c-1.1-1-1.7-2.3-1.7-3.8
		c-0.2-5.2,0.1-10.4,0.7-15.5c0.1-2.1-0.2-4.3-0.9-6.3c-1.9,5.6-2.7,11.6-2.4,17.6c0,0,0.4,7.1-3.1,9.4c0,0,0.3,19.7,8.1,30.5
		C162.7,152.1,169.4,155.3,176.4,155.1L176.4,155.1z"/>
</g>
</svg>
